<svg enable-background="new 0 0 150 150" viewBox="0 0 150 150" xmlns="http://www.w3.org/2000/svg"><circle cx="75" cy="75" fill="#d8e9f7" r="75"/><path d="m46.5 52.5 60 65.1c2.7 2.9 7.4 3 10.1.1l1.8-1.8c2.8-2.9 2.6-7.5-.4-10.2l-67-57.9c-1.3-1.1-3.3-1-4.5.2-1.1 1.3-1.1 3.2 0 4.5z" fill="#70b1de" stroke="#3e4147" stroke-miterlimit="10" stroke-width="1.5"/><path d="m51 55.5 56.8 59.8c1.7 1.8 4.4 2.1 5.9.5l1-1c1.5-1.6 1.2-4.3-.7-5.9l-60.6-55.9c-.8-.7-2-.8-2.6-.1-.6.6-.5 1.8.2 2.6z" fill="#85c3e9"/><path d="m38.4 35.9 14.1 4.6c1 .3 2.1.1 3-.5l11.8-9c2.1-1.6 5.2-.1 5.2 2.6v14.8c0 1.1.5 2.1 1.4 2.7l12.2 8.4c2.2 1.5 1.7 4.9-.8 5.8l-14.1 4.6c-1 .3-1.8 1.1-2.1 2.2l-4.1 14.1c-.8 2.6-4.2 3.2-5.8 1l-8.7-12c-.6-.9-1.6-1.4-2.7-1.3l-14.8.4c-2.7.1-4.3-3-2.7-5.2l8.7-12c.6-.9.8-2 .4-3l-5-14c-1-2.6 1.4-5 4-4.2z" fill="#e8a91b" stroke="#3e4147" stroke-miterlimit="10" stroke-width="1.5"/><path d="m42 40.5 11 3.5c.8.3 1.7.1 2.3-.4l9.2-7.1c1.7-1.3 4.1-.1 4.1 2v11.6c0 .8.4 1.6 1.1 2.1l9.6 6.6c1.7 1.2 1.4 3.9-.6 4.5l-11 3.6c-.8.3-1.4.9-1.7 1.7l-3.3 11.1c-.6 2-3.3 2.5-4.5.8l-6.8-9.4c-.5-.7-1.3-1.1-2.1-1l-11.6.3c-2.1.1-3.4-2.3-2.1-4l6.8-9.4c.5-.7.6-1.6.3-2.3l-3.9-10.9c-.7-2 1.2-4 3.2-3.3z" fill="#fdbe2a"/><ellipse cx="64.4" cy="43.5" fill="#fff8e9" rx="4.4" ry="2.5" transform="matrix(.3453 -.9385 .9385 .3453 1.3513 88.8915)"/></svg>